<?xml version="1.0" ?><!DOCTYPE svg  PUBLIC '-//W3C//DTD SVG 1.1//EN'  'http://www.w3.org/Graphics/SVG/1.1/DTD/svg11.dtd'><svg enable-background="new 0 0 128 128" height="128px" id="Layer_1" version="1.1" viewBox="0 0 128 128" width="128px" xml:space="preserve" xmlns="http://www.w3.org/2000/svg" xmlns:xlink="http://www.w3.org/1999/xlink"><g><path d="M128,33.445c-2.704-6.481-9.152-13.745-14.426-19.019C108.301,9.153,101.035,2.706,94.555,0L70.536,57.464   L128,33.445z" fill="#F5C369"/><path d="M91.928,6.284c6.481,2.706,12.557,6.686,17.829,11.959c5.274,5.274,9.254,11.348,11.959,17.83L128,33.445   c-3.037-7.275-7.505-14.097-13.426-20.018C108.652,7.506,101.831,3.038,94.555,0L91.928,6.284z" fill="#C88250"/><circle cx="85.661" cy="42.35" fill="#B44132" r="4.866"/><circle cx="95.941" cy="19.209" fill="#B44132" r="5.352"/><circle cx="106.033" cy="33.759" fill="#B44132" r="5.109"/></g><g><path d="M20.368,25.5C-1.293,47.161,0.339,85.482,22,107.143c21.662,21.662,59.672,21.662,81.333,0   c16.388-16.389,21.561-43.943,13.152-64.078L62.279,65.723l22.597-54.065C64.738,3.248,36.756,9.113,20.368,25.5z" fill="#F5C369"/><path d="M101.501,104.941c-21.661,21.662-56.782,21.662-78.443,0c-21.661-21.66-21.661-56.78,0-78.441   C39.446,10.113,63.532,6.133,83.67,14.542l2.628-6.285c-22.61-9.441-49.657-4.973-68.057,13.427   c-24.322,24.321-24.321,63.753,0,88.076c24.322,24.322,63.754,24.32,88.075,0c18.396-18.4,22.867-45.447,13.428-68.058   l-6.285,2.628C121.867,64.467,117.889,88.557,101.501,104.941z" fill="#C88250"/><circle cx="20.04" cy="55.799" fill="#B44132" r="5.888"/><circle cx="57.958" cy="47.418" fill="#B44132" r="5.352"/><circle cx="37.188" cy="33.228" fill="#B44132" r="6.423"/><circle cx="59.875" cy="80.675" fill="#B44132" r="5.888"/><circle cx="41.61" cy="69.044" fill="#B44132" r="6.69"/><circle cx="62.013" cy="22.151" fill="#B44132" r="5.887"/><circle cx="96.378" cy="89.485" fill="#B44132" r="5.887"/><circle cx="46.5" cy="104.548" fill="#B44132" r="5.888"/><circle cx="25.72" cy="87.226" fill="#B44132" r="5.352"/><circle cx="81.172" cy="70.633" fill="#B44132" r="5.352"/><circle cx="103.973" cy="64.106" fill="#B44132" r="6.69"/><circle cx="71.883" cy="100.454" fill="#B44132" r="6.688"/></g></svg>